<?xml version="1.0" encoding="UTF-8" standalone="no"?>
<svg
   xmlns:dc="http://purl.org/dc/elements/1.1/"
   xmlns:cc="http://creativecommons.org/ns#"
   xmlns:rdf="http://www.w3.org/1999/02/22-rdf-syntax-ns#"
   xmlns:svg="http://www.w3.org/2000/svg"
   xmlns="http://www.w3.org/2000/svg"
   viewBox="0 0 256.05344 344.98456"
   height="344.98456"
   width="256.05344"
   version="1.1"
   id="svg2">
  <metadata
     id="metadata8">
    <rdf:RDF>
      <cc:Work
         rdf:about="">
        <dc:format>image/svg+xml</dc:format>
        <dc:type
           rdf:resource="http://purl.org/dc/dcmitype/StillImage" />
        <dc:title></dc:title>
      </cc:Work>
    </rdf:RDF>
  </metadata>
  <defs
     id="defs6" />
  <g
     transform="translate(-18.946555,-22)"
     id="g3338">
    <path
       id="path3342"
       d="M 137.96257,363.16796 C 121.66733,355.9129 96.831783,339.81238 88.682904,331.22068 l -2.817096,-2.97018 2.317096,-0.57035 C 106.43417,323.18769 165.79022,321.8714 191,325.40007 c 18.27841,2.55846 18.08443,2.46793 13.88587,6.48036 -5.54502,5.29918 -21.05917,16.72762 -29.5029,21.73319 -9.97011,5.91043 -25.24973,13.39118 -27.31039,13.3709 -0.86492,-0.009 -5.41442,-1.72596 -10.11001,-3.81656 z M 211,317.33349 c -1.375,-0.21678 -7.45,-1.0747 -13.5,-1.9065 -13.40843,-1.84348 -14.24514,-2.08227 -15.49783,-4.42294 -0.84588,-1.58054 0.84707,-3.71754 11.25106,-14.20211 C 209.56415,280.3647 222,264.88965 222,261.02975 222,257.79709 218.11523,251.7651 202.94021,231.43513 183.15505,204.92893 150.972,169 147.01446,169 c -3.15211,0 -29.69524,28.691 -47.644595,51.5 -7.775709,9.88092 -24.471989,32.95379 -26.248522,36.27327 -2.340253,4.3728 -1.286093,6.95499 7.090923,17.36937 4.516746,5.61525 13.749311,15.77076 20.516814,22.56779 10.57013,10.61625 12.16137,12.62576 11.28879,14.25617 -1.31643,2.45978 -2.18684,2.69059 -16.988011,4.50486 -17.676866,2.16676 -20.258229,2.0487 -23.997262,-1.09748 -6.109338,-5.14067 -21.329213,-26.19442 -27.067942,-37.44326 -3.416803,-6.69749 -2.459776,-13.35687 3.05063,-21.22753 10.080398,-14.3981 33.245491,-42.68088 45.471222,-55.51683 3.307421,-3.47251 6.14653,-6.68412 6.309132,-7.13692 0.162601,-0.4528 8.645821,-8.63666 18.851591,-18.18636 L 136.20319,157.5 l -8.3516,-7.81803 C 123.25822,145.38205 114.2125,137.30506 107.75,131.73311 101.2875,126.16115 96,121.24176 96,120.80114 96,120.36051 99.989314,120 104.86514,120 c 10.2308,0 7.8896,-1.32148 27.84802,15.71877 12.64673,10.79762 15.41808,12.49594 16.78417,10.28555 0.66088,-1.06932 22.91751,-20.02517 27.89066,-23.75432 2.58158,-1.93582 4.23016,-2.25 11.80629,-2.25 4.84315,0 8.80572,0.36051 8.80572,0.80114 0,0.44062 -5.2875,5.36001 -11.75,10.93197 -6.4625,5.57195 -15.5189,13.64894 -20.12533,17.94886 l -8.37532,7.81803 15.87532,14.69252 c 20.38963,18.87049 34.23283,33.82759 53.96515,58.30748 22.86843,28.37056 26.60682,34.99815 24.00346,42.55445 -1.82411,5.29452 -8.24567,15.95484 -15.52404,25.77118 -8.38875,11.31391 -13.0481,16.26194 -16.78712,17.82724 -3.24267,1.35751 -3.73309,1.39781 -8.28212,0.68062 z m -74.5143,-5.35662 c -0.37096,-0.60023 -0.5195,-4.32808 -0.33009,-8.2841 L 136.5,296.5 l -7.88984,-0.29458 -7.88983,-0.29458 0.54055,-7.88653 C 121.88676,278.89291 121.98747,279 112.77444,279 l -6.06199,0 0.66717,-8 0.66718,-8 -6.85673,0 c -3.771207,0 -7.073698,-0.21696 -7.338873,-0.48214 -0.265176,-0.26517 0.224287,-5.10267 1.087695,-10.75 L 96.508723,241.5 103.50436,241 110.5,240.5 l 1,-8 1,-8 6.5,-0.5 6.5,-0.5 0.5,-6.5 c 0.275,-3.575 0.86406,-7.0625 1.30902,-7.75 0.48255,-0.74558 2.98622,-1.25 6.20431,-1.25 l 5.39529,0 0.29569,-6.75 0.29569,-6.75 7.5,0 7.5,0 0.29569,6.75 0.29569,6.75 5.89304,0 5.89303,0 0.55764,4.25 c 0.3067,2.3375 0.67178,5.825 0.81128,7.75 l 0.25363,3.5 6.5,0.5 6.5,0.5 1,8 1,8 7,0.5 7,0.5 1.18724,7.5 c 0.65298,4.125 1.21548,8.9625 1.25,10.75 L 200,263 l -7.0234,0 -7.0234,0 0.66718,8 0.66717,8 -6.06199,0 c -9.32076,0 -9.24616,-0.079 -8.54237,9.04758 l 0.60636,7.86308 -7.89478,0.29467 L 157.5,296.5 l 0,8 0,8 -10.16991,0.2841 c -6.56299,0.18334 -10.40912,-0.10296 -10.84439,-0.80723 z M 153,278.0499 l 0,-5.95009 5.75,-0.29991 5.75,-0.2999 0.112,-7 0.112,-7 5.888,-0.5 c 5.60257,-0.47576 5.9039,-0.63917 6.21608,-3.37083 0.18045,-1.57896 0.0594,-3.94146 -0.26905,-5.25 C 176.01509,246.21196 175.43944,246 170.09758,246 c -6.65887,0 -7.05884,-0.52226 -7.08393,-9.25 L 163,232 l -3.91821,0 c -5.9968,0 -7.08002,-0.74149 -7.09544,-4.85699 C 151.96064,220.2853 151.17207,219 146.99036,219 142.67474,219 142,220.00936 142,226.46516 c 0,4.70824 -1.1019,5.49325 -7.75,5.52119 -3.20668,0.0135 -3.25018,0.077 -3.26365,4.76365 -0.0251,8.72134 -0.42843,9.25 -7.05767,9.25 l -5.83805,0 -0.63787,3.40014 c -1.17642,6.27086 -0.55598,7.06722 5.76413,7.39849 l 5.69745,0.29862 0.29283,7.20138 0.29283,7.20137 5.75,0.2999 5.75,0.29991 0,5.28343 c 0,2.90588 0.3,5.58343 0.66667,5.95009 0.36666,0.36667 3.06666,0.66667 6,0.66667 l 5.33333,0 0,-5.9501 z M 142.81037,259.25 c -0.29352,-3.54636 -0.51401,-3.76685 -4.06037,-4.06037 -3.92351,-0.32472 -4.38764,-1.20838 -3.11971,-5.93963 0.47192,-1.76096 1.32522,-2.25 3.92598,-2.25 3.11807,0 3.34214,-0.23126 3.63336,-3.75 0.29464,-3.55993 0.48777,-3.75 3.81037,-3.75 3.31277,0 3.51642,0.19756 3.80697,3.69303 0.28842,3.46983 0.53017,3.71158 4,4 3.46846,0.2883 3.71167,0.53113 3.9996,3.99323 0.30026,3.61044 0.22826,3.69272 -3.5,4 -3.6111,0.29763 -3.82251,0.50631 -4.11694,4.06374 -0.30089,3.63554 -0.42876,3.75 -4.18963,3.75 -3.76087,0 -3.88874,-0.11446 -4.18963,-3.75 z M 31.650413,249.21499 C 30.418837,247.13986 24.924902,228.25057 23.153258,220 c -3.517813,-16.38251 -5.54813,-45 -3.192602,-45 0.52836,0 2.637793,3.7125 4.687628,8.25 2.049836,4.5375 8.053363,16.8 13.341172,27.25 l 9.614198,19 -7.76445,10.21499 c -4.270448,5.61824 -7.955404,9.89324 -8.188791,9.5 z m 224.267677,-7.18353 c -3.52995,-4.56064 -7.21593,-9.32111 -8.19106,-10.5788 -1.72568,-2.22573 -1.68883,-2.42899 1.38121,-7.6197 3.88662,-6.57133 16.30074,-31.60002 20.87297,-42.08296 1.85912,-4.2625 3.7489,-7.75 4.19951,-7.75 1.3414,0 0.93154,18.02448 -0.69807,30.69878 -0.83454,6.49067 -3.29783,18.36786 -5.47397,26.39376 -5.91188,21.80373 -4.59993,20.61676 -12.09059,10.93892 z M 52,206.16466 c 0,-0.50226 0.675,-2.82636 1.5,-5.16466 2.364085,-6.70053 2.192961,-7 -4,-7 -6.192961,0 -6.364085,-0.29947 -4,-7 0.825,-2.3383 1.5,-4.64488 1.5,-5.12573 C 47,181.39342 44.75,181 42,181 36.398763,181 36.085719,180.43243 38.5,174.65424 40.685281,169.42413 40.460248,169 35.5,169 c -2.475,0 -4.5,-0.44527 -4.5,-0.98948 0,-0.54421 1.172853,-3.91921 2.60634,-7.5 L 36.212681,154 l 5.365861,0 5.365862,0 2.129985,-4.95128 c 2.124169,-4.93777 2.144041,-4.9521 7.277798,-5.25 4.992273,-0.28969 5.205861,-0.42713 7.069,-4.54872 1.874007,-4.14563 2.039441,-4.25 6.73658,-4.25 4.558088,0 4.893534,-0.18702 6.277786,-3.5 1.425629,-3.41201 1.603841,-3.5 7.088787,-3.5 l 5.626393,0 -0.325367,3.25 c -0.318007,3.1765 -0.227493,3.25704 4.002177,3.56129 l 4.327544,0.31128 -0.665441,3.93872 -0.665442,3.93871 4.622336,0 4.62235,0 -0.66328,5 -0.66327,5 4.62883,0 c 5.20097,0 5.08521,-0.28456 3.52618,8.66809 L 110.79469,168 l -4.81789,0 c -5.28321,0 -4.86059,-0.59425 -6.545103,9.20315 l -0.636702,3.70316 -5.640788,0.29684 -5.640787,0.29685 -1.333547,6.20428 -1.333546,6.20427 -6.171647,0.29573 -6.171647,0.29572 -1.583318,6 -1.583317,6 -8.668199,0.28893 C 55.89437,206.94806 52,206.66759 52,206.16466 Z m 17.605088,-21.92997 c 0.607798,-0.40408 1.655197,-2.42219 2.327552,-4.48469 1.211591,-3.71664 1.270278,-3.75 6.597908,-3.75 5.359815,0 5.378472,-0.0109 6.416871,-3.75 0.572785,-2.0625 1.043937,-4.48502 1.047004,-5.38337 0.0062,-1.80564 2.796634,-2.83214 7.755577,-2.85298 1.918658,-0.008 3.255594,-0.5257 3.263655,-1.26365 0.0075,-0.6875 0.284994,-2.2625 0.616631,-3.5 0.562841,-2.10023 0.289432,-2.25 -4.107493,-2.25 l -4.710469,0 0.687676,-5 0.687676,-5 -4.568838,0 c -4.543153,0 -4.565465,-0.0169 -3.968838,-3 0.557991,-2.78995 0.393837,-3 -2.344533,-3 -2.361941,0 -3.227558,0.64303 -4.375,3.25 -1.282333,2.91344 -1.948248,3.30178 -6.430467,3.75 -4.829846,0.48298 -5.049233,0.64241 -6.446706,4.68481 -1.513344,4.37757 -2.989901,5.27678 -8.705469,5.30154 -2.577342,0.0112 -3.337484,0.54523 -4.168345,2.92864 C 47.917212,164.53593 48.370166,165 53.166667,165 c 4.335875,0 4.395847,0.15421 2.333333,6 -0.825,2.3383 -1.5,4.41988 -1.5,4.62573 C 54,175.83158 56.277573,176 59.061273,176 l 5.061273,0 -0.674817,4.5 c -0.666584,4.4451 -0.639884,4.49981 2.188727,4.48469 1.574949,-0.008 3.360834,-0.34592 3.968632,-0.75 z M 69,166.5 c 0,-1.375 -0.3375,-2.50689 -0.75,-2.51531 -0.4125,-0.008 -1.35896,-0.4012 -2.103245,-0.87283 C 64.065559,161.79307 66.499376,158 69.426776,158 c 1.679512,0 2.53665,-0.71814 2.983868,-2.5 0.458365,-1.82627 1.296053,-2.5 3.108408,-2.5 C 77.49873,153 78,153.50512 78,155.5 c 0,1.83333 0.533333,2.5 2,2.5 1.259259,0 2,0.66667 2,1.8 0,2.31261 -1.898517,4.2 -4.224751,4.2 -1.026268,0 -2.240674,1.09396 -2.775249,2.5 -0.66746,1.75555 -1.702314,2.5 -3.475249,2.5 C 69.49835,169 69,168.50654 69,166.5 Z m 155.91998,40.25 c -0.044,-0.1375 -0.8322,-2.95 -1.75152,-6.25 l -1.67149,-6 -6.17545,-0.29582 -6.17545,-0.29582 -1.07303,-5.0034 C 207.48287,186.15309 207,183.24871 207,182.45078 207,181.34732 205.59024,181 201.11129,181 l -5.88871,0 -0.64549,-3.75 C 192.88022,167.39196 193.31256,168 188,168 c -5.37106,0 -5.08816,0.44632 -6.49694,-10.25 l -0.62561,-4.75 4.64379,0 4.64378,0 -0.33251,-4.75 -0.33251,-4.75 4.32754,-0.31129 4.32755,-0.31128 L 197.5,139 l -0.65509,-3.87743 4.32755,-0.31128 c 4.22967,-0.30425 4.32018,-0.38479 4.00217,-3.56129 l -0.32536,-3.25 5.9307,0 c 5.83429,0 5.94578,0.0528 6.85745,3.25 0.87097,3.05442 1.25112,3.28009 6.31702,3.75 4.93054,0.45736 5.47231,0.75587 6.35219,3.5 1.49491,4.66228 2.48858,5.3793 7.90005,5.70056 4.9673,0.2949 5.07037,0.36773 6.79218,4.79944 1.72511,4.44019 1.8198,4.50665 7.12474,5 5.24046,0.48736 5.43168,0.6156 7.56267,5.072 1.20245,2.5146 2.48874,5.7771 2.85841,7.25 0.65603,2.61383 0.5617,2.678 -3.93627,2.678 -2.53463,0 -4.60841,0.39342 -4.60841,0.87427 0,0.48085 0.675,2.78743 1.5,5.12573 0.825,2.3383 1.5,4.64488 1.5,5.12573 0,0.48085 -2.25,0.87427 -5,0.87427 -2.75,0 -5,0.37955 -5,0.84345 0,0.4639 0.87576,3.3889 1.94614,6.5 l 1.94614,5.65655 -5.94614,0 C 241.67576,194 239,194.37848 239,194.84107 c 0,0.46259 0.67013,3.05009 1.48918,5.75 0.81904,2.69991 1.49404,5.24643 1.5,5.65893 0.009,0.65563 -16.8612,1.14982 -17.0692,0.5 z m 4.91792,-22.62238 C 230.83614,184.0324 231.00423,182.9845 230.5,180 l -0.6758,-4 5.0879,0 c 5.57445,0 5.80113,-0.35723 3.5879,-5.65424 C 236.39439,165.30632 236.52809,165 240.83333,165 c 4.7965,0 5.24946,-0.46407 3.98719,-4.08501 -0.83086,-2.38341 -1.591,-2.91748 -4.16835,-2.92864 -5.71556,-0.0248 -7.19212,-0.92397 -8.70546,-5.30154 -1.40319,-4.05893 -1.59185,-4.19407 -6.27191,-4.49267 -4.44111,-0.28336 -4.93969,-0.58187 -6.26342,-3.75 C 218.2092,141.56492 217.46249,141 214.86158,141 c -2.92398,0 -3.07541,0.18087 -2.51158,3 0.5957,2.97852 0.56772,3 -3.90944,3 l -4.50945,0 0.66328,5 0.66327,5 -4.70828,0 -4.70829,0 0.70509,3.25 c 0.84584,3.89878 2.16944,4.95478 5.28886,4.21956 3.97667,-0.93727 5.90608,0.32147 6.61338,4.31454 1.28695,7.26537 1.23867,7.2159 7.04142,7.2159 5.30649,0 5.36602,0.034 6.56392,3.75 1.63167,5.06157 1.58765,5.01152 4.1716,4.74227 1.25105,-0.13036 2.87669,-0.29445 3.61254,-0.36465 z M 218.80457,166.29229 C 218.08705,164.80305 216.375,163.3221 215,163.00129 211.73908,162.24048 210.83224,158 213.93045,158 215.4713,158 216,157.36134 216,155.5 c 0,-3.33342 4.07895,-3.51839 5.51287,-0.25 0.6101,1.39062 2.03748,2.37086 3.73713,2.56642 1.5125,0.17403 2.75,0.69973 2.75,1.16821 0,0.46849 0.25754,1.52295 0.57232,2.34324 0.36152,0.94211 -0.19097,1.73371 -1.5,2.14918 -1.34825,0.42791 -2.07232,1.50769 -2.07232,3.09034 0,3.58527 -4.4303,3.38855 -6.19543,-0.2751 z M 19.225229,136.75 19.5,120.5 45.75,120.2334 c 14.4375,-0.14664 26.25,0.1012 26.25,0.55073 0,0.44954 -2.1375,1.8452 -4.75,3.10147 -7.738064,3.72099 -29.118153,16.72084 -38.064356,23.14446 C 24.612749,150.31353 20.439102,153 19.910873,153 c -0.585759,0 -0.853228,-6.33911 -0.685644,-16.25 z M 263.5,146.32708 c -10.07479,-7.27264 -27.03659,-17.68008 -35.75,-21.93553 -3.1625,-1.5445 -5.75,-3.17191 -5.75,-3.61647 0,-0.44456 11.8125,-0.68832 26.25,-0.54168 l 26.25,0.2666 0.27477,16.25 c 0.21442,12.681 -0.005,16.23066 -1,16.16193 -0.70112,-0.0484 -5.32477,-3.01162 -10.27477,-6.58485 z M 138.75,127.4374 C 134.4875,124.41517 131,121.50538 131,120.97121 131,120.38217 137.49269,120 147.5,120 c 9.075,0 16.48479,0.3375 16.46619,0.75 -0.0282,0.62604 -15.0788,11.29072 -16.88735,11.96619 -0.31836,0.1189 -4.06634,-2.25655 -8.32884,-5.27879 z"
       style="fill:#e62939" />
    <path
       id="path3340"
       d="m 19,63.5 0,-41.5 128,0 128,0 0,41.5 0,41.5 -128,0 -128,0 0,-41.5 z M 194.76421,74.25 C 199.47175,66.290381 206,53.439293 206,52.131953 c 0,-1.283124 -2.96121,-2.28229 -4.89088,-1.650273 -0.88501,0.289867 -2.90275,3.225071 -4.48386,6.522675 C 195.04415,60.30196 193.45015,63 193.08303,63 c -0.36711,0 -2.37853,-2.925 -4.46982,-6.5 -3.71199,-6.345556 -4.79029,-7.136751 -8.03142,-5.893011 -2.33984,0.89788 -2.05989,1.820194 3.50318,11.541491 l 5.08497,8.885829 -2.58497,4.410915 C 185.16324,77.871228 184,80.113508 184,80.42807 184,80.742631 185.52372,81 187.38603,81 c 3.11934,0 3.70047,-0.531656 7.37818,-6.75 z m 36.08657,5.652175 c 3.24981,-1.13289 3.56404,-1.657592 2.55987,-4.274419 -0.47884,-1.247835 -1.77441,-1.425155 -6.90932,-0.94565 -5.85863,0.547087 -6.50908,0.401056 -8.91065,-2.000515 -3.83824,-3.83824 -3.68272,-10.743398 0.3324,-14.758514 3.29952,-3.299522 6.64639,-3.714195 11.15595,-1.38221 C 232.42372,58.270472 234,57.780878 234,55.012412 234,51.414506 231.2617,50 224.29661,50 213.34144,50 208,55.163345 208,65.753246 c 0,11.343341 11.12991,18.234846 22.85078,14.148929 z M 53.577525,77.853065 c 0.904703,-0.905814 1.869109,-3.635972 2.143123,-6.067018 0.413114,-3.665134 0.08418,-4.901424 -1.925861,-7.238232 C 51.756125,62.177728 50.347552,61.631914 44.935359,61.114833 39.371611,60.583274 38.5,60.229118 38.5,58.5 c 0,-1.801526 0.763695,-2.028887 7.695652,-2.291086 6.608204,-0.249953 7.783107,-0.566629 8.314548,-2.241051 0.340392,-1.072481 0.338291,-2.403993 -0.0047,-2.958914 C 53.597163,49.539179 34.691287,49.708713 33.2,51.2 32.381827,52.018173 32,56.820824 32,66.293707 l 0,13.893708 9.966305,-0.343708 c 7.586059,-0.26162 10.359158,-0.737043 11.61122,-1.990642 z M 38.389534,73.572726 c -0.301233,-0.785001 -0.39961,-2.472501 -0.218615,-3.75 0.283121,-1.998333 0.98078,-2.364816 4.995388,-2.624099 4.018,-0.259502 4.759924,-0.0064 5.340133,1.821664 C 49.481819,72.093438 46.471674,75 42.313628,75 40.31134,75 38.714332,74.419135 38.389534,73.572726 Z M 82,77.5 C 82,74.753947 81.917018,74.723781 74,74.591734 68.547659,74.500795 68.497285,74.471838 68.186642,71.25 L 67.873283,68 l 6.629781,0 6.629781,0 -0.316423,-2.75 C 80.513174,62.614493 80.239788,62.487605 74.25,62.202283 68.085142,61.908621 68,61.86497 68,58.997973 68,56.105457 68.03269,56.089948 74.75,55.79569 81.28616,55.509367 81.510024,55.41288 81.816422,52.75 L 82.132845,50 72.766422,50 C 66.814761,50 62.96251,50.43749 62.2,51.2 61.382609,52.017391 61,56.8 61,66.2 l 0,13.8 10.5,0 10.5,0 0,-2.5 z m 13.008564,-6.75 c 2.592988,-10.744187 4.038243,-13.47266 7.611416,-14.36947 3.64707,-0.915355 4.43065,0.826612 4.32708,9.61947 -0.17227,14.626136 -0.31,14 3.07967,14 l 3.02674,0 L 112.77673,65.25 112.5,50.5 107.09615,50.192405 C 96.793978,49.60599 92.9654,52.91163 89.891517,65.047091 85.718098,81.523439 85.758659,80 89.493401,80 l 3.28278,0 2.232383,-9.25 z M 125.14984,77 c 1.02528,-2.941098 1.18082,-3 7.9223,-3 6.62914,0 6.9323,0.107915 8.42786,3 1.1962,2.313187 2.23229,3 4.52568,3 C 147.66156,80 149,79.485918 149,78.857596 149,77.274164 142.38238,60.68811 139.41128,54.824911 137.35753,50.772048 136.51377,50 134.13814,50 c -1.55549,0 -3.53064,0.7875 -4.38922,1.75 C 128.12324,53.572447 118,76.9617 118,78.895305 118,79.502887 119.37341,80 121.05202,80 c 2.49206,0 3.24389,-0.550411 4.09782,-3 z M 129,67.582905 c 0,-0.229402 0.91581,-2.553592 2.03513,-5.164867 2.2262,-5.193508 2.84482,-5.038228 5.30639,1.331962 l 1.64229,4.25 -4.49191,0 C 131.02136,68 129,67.812307 129,67.582905 Z m 31,8.044324 0,-4.37277 5.07449,-0.487595 c 8.68778,-0.834786 12.84123,-5.866526 10.83631,-13.127766 -1.40648,-5.09383 -4.1346,-6.955333 -10.91183,-7.445553 -3.25935,-0.23576 -7.06748,-0.142182 -8.46253,0.207952 L 154,51.038104 154,65.519052 154,80 l 3,0 c 2.87596,0 3,-0.180803 3,-4.372771 z m 1.25,-10.350452 C 160.51255,65.015162 160,63.070156 160,60.533298 c 0,-3.589357 0.36361,-4.39512 2.20004,-4.875358 2.9646,-0.775262 7.23293,1.395369 7.5877,3.858683 0.5789,4.019485 -4.25375,7.279923 -8.53774,5.760154 z m 99.82692,11.800146 c 3.78756,-3.787552 4.04903,-9.656398 0.60844,-13.656326 -1.91573,-2.227173 -3.42372,-2.796891 -8.75,-3.305764 L 246.5,59.5 246.19272,54.689105 c -0.29197,-4.571263 -0.4414,-4.79541 -3,-4.5 L 240.5,50.5 240.22327,65.25 239.94653,80 l 9.10366,0 c 8.7286,0 9.22408,-0.120425 12.02673,-2.923077 z m -14.41025,-2.74359 C 246.3,73.966667 246,71.989812 246,69.940322 c 0,-4.297647 1.52929,-5.306855 6.60015,-4.355556 3.52808,0.661873 4.98471,2.997158 3.93412,6.307263 -0.80525,2.537126 -7.99339,4.315515 -9.8676,2.441304 z"
       style="fill:#4e992d" />
  </g>
</svg>
